<?xml version="1.0" encoding="UTF-8"?><svg id="Layer_1" xmlns="http://www.w3.org/2000/svg" xmlns:xlink="http://www.w3.org/1999/xlink" viewBox="0 0 887.48 61"><defs><style>.cls-1{fill:#fff;}.cls-2{fill:#ff0;}.cls-3{fill:#cc2127;}.cls-4{filter:url(#AI_Shadow_1);}.cls-5{isolation:isolate;}</style><filter id="AI_Shadow_1"><feGaussianBlur in="SourceAlpha" result="blur" stdDeviation="2"/><feOffset dx="4" dy="4" in="blur" result="offsetBlurredAlpha"/><feMerge><feMergeNode in="offsetBlurredAlpha"/><feMergeNode in="SourceGraphic"/></feMerge></filter></defs><g class="cls-4"><polygon class="cls-2" points="40.8 10.2 41.5 5.5 17.1 5.5 16.3 10.2 40.8 10.2"/><polygon class="cls-2" points="57.6 10.2 58.3 5.5 53.9 5.5 52.9 10.2 57.6 10.2"/><polygon class="cls-2" points="111.5 10.2 112.3 5.5 87.8 5.5 87.1 10.2 111.5 10.2"/><path class="cls-2" d="M134.7,10.2c1.3-.6,2.6-.7,4.1-.7,1.3,0,2.6,.4,3.5,.7h6.5c-.6-.7-.9-1.3-1.7-2.1-2.2-2.2-5.2-3.4-8.6-3.4-4.5,0-8.2,1.9-11.4,5.4h7.6v.1Z"/><path class="cls-2" d="M144.6,12.1c1.1,1.5,2.1,3.5,2.4,6.3l4.3-.6c-.2-2.2-.7-4.1-1.5-5.8h-5.2v.1Z"/><polygon class="cls-2" points="189.9 10.2 190.7 5.5 164 5.5 163.1 10.2 189.9 10.2"/><path class="cls-2" d="M205.1,10.2h0l11-.2c.9,0,1.7,0,2.2,.2h7.1c-.2-.2-.2-.6-.4-.7-.7-1.3-1.7-2.2-3-3-1.3-.7-3.5-.9-6.5-.9h-14.2l-.7,4.7h4.5v-.1Z"/><polygon class="cls-2" points="247.4 10.2 248.2 5.5 243.7 5.5 243 10.2 247.4 10.2"/><path class="cls-2" d="M272.6,10.2c1.3-.6,2.6-.7,4.1-.7,1.3,0,2.6,.4,3.5,.7h6.5c-.6-.7-.9-1.3-1.7-2.1-2.2-2.2-5.2-3.4-8.6-3.4-4.5,0-8.2,1.9-11.4,5.4h7.6v.1Z"/><path class="cls-2" d="M282.5,12.1c1.1,1.5,2.1,3.5,2.4,6.3l4.3-.6c-.2-2.2-.7-4.1-1.5-5.8h-5.2v.1Z"/><path class="cls-2" d="M315,10.2q.2-.2,0,0c.2-.2,.2,0,0,0h3.9l-.6-4.7h-5.3l-2.2,4.7h4.2Z"/><polygon class="cls-2" points="345.8 10.2 346.5 5.5 341.9 5.5 341.1 10.2 345.8 10.2"/><path class="cls-2" d="M400.9,10.2c1.1-.6,2.4-.7,4.1-.7,1.5,0,2.8,.4,3.9,.7h6.9c-1.1-1.7-2.4-3-4.1-3.9-1.9-.9-3.9-1.5-6.5-1.5-3.7,0-6.7,.9-8.8,3-.7,.7-1.3,1.5-1.7,2.4h6.2Z"/><path class="cls-2" d="M411.3,12.1c.2,.4,.6,.6,.7,.9,.7,1.1,.9,2.4,.9,3.7v.9l4.5-.4v-.9c0-1.5-.4-3-.7-4.3,0,.1-5.4,.1-5.4,.1Z"/><polygon class="cls-2" points="458 10.2 458.9 5.5 454.3 5.5 453.5 10.2 458 10.2"/><polygon class="cls-2" points="436 10.2 436.9 5.5 432.2 5.5 431.5 10.2 436 10.2"/><path class="cls-2" d="M476.1,10.2v-.2h8.8c1.3,0,2.2,0,3,.2h7.3s0-.2-.2-.2c-.7-1.7-1.9-2.8-3-3.5s-3-.9-5.4-.9h-14.2l-.7,4.7h4.4v-.1Z"/><path class="cls-2" d="M513.6,10.2v-.2h8.8c1.3,0,2.2,0,3,.2h7.3s0-.2-.2-.2c-.7-1.7-1.9-2.8-3-3.5s-3-.9-5.4-.9h-14.2l-.7,4.7h4.4v-.1Z"/><g><path class="cls-2" d="M526.1,28.9q.2,0,.4-.2c2.2-.9,3.9-2.6,5.2-5.2,1.3-2.4,2.1-5.2,2.1-8,0-1.3-.2-2.6-.6-3.7h-5c0,.2,.2,.2,.2,.4,.6,.9,.7,2.1,.7,3.5,0,1.9-.4,3.5-1.3,5.2s-2.1,2.8-3.4,3.4c-1.3,.7-3.4,.9-6.2,.9h-7.5l2.2-13.4h-4.7l-3,17h20.7v.1h.2Z"/><polygon class="cls-2" points="505.4 30.7 502.6 47 507.3 47 510.1 30.7 505.4 30.7"/></g><polygon class="cls-2" points="551.9 10.2 552.6 5.5 548.1 5.5 547.2 10.2 551.9 10.2"/><polygon class="cls-2" points="585.8 10.2 586.8 5.5 582.1 5.5 581.4 10.2 585.8 10.2"/><polygon class="cls-2" points="627.1 10.2 627.8 5.5 603.4 5.5 602.5 10.2 627.1 10.2"/><path class="cls-2" d="M644.8,10.2c1.1-.6,2.4-.7,4.1-.7,1.5,0,2.8,.4,3.9,.7h6.9c-1.1-1.7-2.4-3-4.1-3.9-1.9-.9-3.9-1.5-6.5-1.5-3.7,0-6.7,.9-8.8,3-.7,.7-1.3,1.5-1.7,2.4h6.2Z"/><path class="cls-2" d="M655.5,12.1c.2,.4,.6,.6,.7,.9,.7,1.1,.9,2.4,.9,3.7v.9l4.5-.4v-.9c0-1.5-.4-3-.7-4.3,0,.1-5.4,.1-5.4,.1Z"/><g><polygon class="cls-2" points="17.7 28.9 17.8 27.9 37.3 27.9 38 23.1 18.6 23.1 20.5 12.1 16 12.1 13 28.9 17.7 28.9"/><polygon class="cls-2" points="17.3 30.7 12.8 30.7 10 47 35.9 47 36.7 42.3 15.4 42.3 17.3 30.7"/></g><g><polygon class="cls-2" points="54.4 28.9 57.2 12.1 52.7 12.1 49.8 28.9 54.4 28.9"/><polygon class="cls-2" points="54.1 30.7 49.4 30.7 46.6 47 69.2 47 70.1 42.3 52 42.3 54.1 30.7"/></g><g><polygon class="cls-2" points="88.4 28.9 88.6 27.9 108 27.9 108.7 23.1 89.3 23.1 91.2 12.1 86.7 12.1 83.7 28.9 88.4 28.9"/><polygon class="cls-2" points="88 30.7 83.5 30.7 80.7 47 106.7 47 107.4 42.3 86.2 42.3 88 30.7"/></g><g><path class="cls-2" d="M125.4,28.9c.2-5,1.3-9.7,3.7-13.4,.9-1.3,1.9-2.6,2.8-3.5h-6.2c-.2,.2-.2,.4-.4,.4-3,4.5-4.5,10.1-4.7,16.4h4.7v.1h.1Z"/><path class="cls-2" d="M140.7,40.6c-1.7,1.7-3.7,2.4-6,2.4-2.6,0-4.9-1.1-6.7-3.4-1.7-2.1-2.4-5-2.6-9.1h-4.7c.2,5.4,1.3,9.5,3.7,12.5s5.8,4.5,9.7,4.5c3.4,0,6.3-1.1,9.1-3.5s4.9-6.2,6.3-11l-4.5-.7c-.8,3.7-2.3,6.3-4.3,8.3Z"/></g><g><polygon class="cls-2" points="175.6 28.9 178.6 12.1 173.9 12.1 171.1 28.9 175.6 28.9"/><polygon class="cls-2" points="170.7 30.7 167.9 47 172.6 47 175.4 30.7 170.7 30.7"/></g><g><path class="cls-2" d="M217.9,31.9c-.2-.4-.6-.7-.7-1.1h-4.7c.2,.4,.4,.7,.7,1.1,1.1,2.1,2.2,4.5,3,7.5l2.4,7.8h5l-2.6-7.8c-.6-2.7-1.8-5.1-3.1-7.5Z"/><path class="cls-2" d="M201.9,28.9v-.4h5.2c1.3,0,2.2,.2,3,.4h5.4l-.6-.6c3.7-.6,6.7-2.1,8.6-4.1,1.9-2.1,2.8-5,2.8-8.6,0-1.3-.2-2.4-.4-3.5h-4.9c0,.2,.2,.2,.2,.4,.4,.9,.7,1.9,.7,3.2,0,1.5-.2,2.6-.7,3.9-.6,1.1-1.3,2.1-2.2,2.8-.9,.7-2.1,1.3-3.2,1.5-1.3,.2-3.5,.4-6.9,.4h-6.2l2.1-12.1h-4.7l-3,17h4.7v-.3h.1Z"/><polygon class="cls-2" points="197 30.7 194.2 47 198.7 47 201.5 30.7 197 30.7"/></g><g><polygon class="cls-2" points="239.4 30.7 236.6 47 241.1 47 243.9 30.7 239.4 30.7"/><polygon class="cls-2" points="244.3 28.9 247.1 12.1 242.6 12.1 239.6 28.9 244.3 28.9"/></g><g><path class="cls-2" d="M263.3,28.9c.2-5,1.3-9.7,3.7-13.4,.9-1.3,1.9-2.6,2.8-3.5h-6.2c-.2,.2-.2,.4-.4,.4-3,4.5-4.5,10.1-4.7,16.4h4.7v.1h.1Z"/><path class="cls-2" d="M278.6,40.6c-1.7,1.7-3.7,2.4-6,2.4-2.6,0-4.9-1.1-6.7-3.4-1.7-2.1-2.4-5-2.6-9.1h-4.7c.2,5.4,1.3,9.5,3.7,12.5,2.4,3,5.8,4.5,9.7,4.5,3.4,0,6.3-1.1,9.1-3.5s4.9-6.2,6.3-11l-4.5-.7c-.7,3.7-2.2,6.3-4.3,8.3Z"/></g><g><polygon class="cls-2" points="317.4 30.7 317.4 30.7 306.2 30.7 306.2 30.7 301.2 30.7 293.7 47 298.8 47 304.2 35 318 35 319.7 47 324.2 47 321.9 30.7 317.4 30.7"/><path class="cls-2" d="M317.2,28.9h4.5l-2.2-17h-4.1c.2,2.4,.4,5.2,.7,8.4l1.1,8.6Z"/><path class="cls-2" d="M307,28.9l4.9-10.5c1.1-2.4,2.1-4.5,2.6-6.5h-4.5l-7.8,17h4.8Z"/></g><g><polygon class="cls-2" points="342.4 28.9 345.4 12.1 340.8 12.1 338 28.9 342.4 28.9"/><polygon class="cls-2" points="342.3 30.7 337.6 30.7 334.8 47 357.4 47 358.1 42.3 340.2 42.3 342.3 30.7"/></g><g><path class="cls-2" d="M397.9,24.9c.9,.7,2.6,1.7,5.2,3,.6,.4,1.1,.6,1.5,.9h8.4c-.4-.4-.7-.9-1.1-1.3-.9-.9-3-2.2-5.8-3.7-3.9-2.1-6.3-3.5-7.3-4.5-.9-.9-1.5-2.2-1.5-3.9,0-1.3,.4-2.6,1.1-3.5h-4.9c-.4,1.1-.6,2.4-.6,3.9,0,1.9,.4,3.5,1.1,5,1.1,1.7,2.2,3,3.9,4.1Z"/><path class="cls-2" d="M414.1,30.7h-6.5c.7,.6,1.3,.9,1.7,1.5,.9,1.1,1.3,2.2,1.3,3.7,0,2.1-.7,3.7-2.2,5.2-1.5,1.3-3.5,2.1-6.2,2.1-1.9,0-3.5-.4-4.9-1.1-1.3-.7-2.2-1.7-2.8-2.6-.7-1.5-1.1-3.2-1.1-5v-1.3l-4.5,.6c0,4.9,1.1,8.4,3.4,10.8s5.4,3.4,9.7,3.4c3.9,0,7.1-1.1,9.5-3.5,2.4-2.2,3.7-5.2,3.7-8.8,0-1.7-.4-3.2-.9-4.5q0-.3-.2-.5Z"/></g><g><path class="cls-2" d="M454.8,28.9l3-17h-4.7l-2.8,16.2c0,.2,0,.4-.2,.6h4.7v.2Z"/><path class="cls-2" d="M432.8,28.9l2.8-17h-4.5l-2.8,16.1c0,.2,0,.6-.2,.7h4.7v.2Z"/><path class="cls-2" d="M450,30.7c-.9,4.3-1.9,7.1-3.2,8.8-1.9,2.4-4.3,3.5-7.3,3.5-2.2,0-4.1-.7-5.4-2.1-1.5-1.5-2.1-3.2-2.1-5.2,0-1.1,.2-2.6,.6-4.7v-.2h-4.5c-.4,2.2-.6,3.9-.6,4.9,0,3.7,1.1,6.5,3.4,8.8s5.2,3.4,9,3.4c2.4,0,4.7-.6,6.7-1.9,2.1-1.1,3.7-3,5-5.4,1.3-2.2,2.2-5.6,3-9.7h-4.6v-.2Z"/></g><g><path class="cls-2" d="M488.6,28.9q.2,0,.4-.2c2.2-.9,3.9-2.6,5.2-5.2,1.3-2.6,2.1-5.2,2.1-8,0-1.3-.2-2.6-.6-3.7h-5c0,.2,.2,.2,.2,.4,.6,.9,.7,2.1,.7,3.5,0,1.9-.4,3.5-1.3,5.2s-2.1,2.8-3.4,3.4-3.4,.9-6.2,.9h-7.5l2.2-13.4h-4.7l-3,17h20.7v.1h.2Z"/><polygon class="cls-2" points="468.1 30.7 465.3 47 469.7 47 472.5 30.7 468.1 30.7"/></g><g><polygon class="cls-2" points="548.3 30.7 543.9 30.7 541.1 47 563.6 47 564.4 42.3 546.3 42.3 548.3 30.7"/><polygon class="cls-2" points="548.7 28.9 551.5 12.1 547 12.1 544 28.9 548.7 28.9"/></g><g><polygon class="cls-2" points="582.7 28.9 585.7 12.1 581 12.1 578 28.9 582.7 28.9"/><polygon class="cls-2" points="577.8 30.7 575 47 579.5 47 582.3 30.7 577.8 30.7"/></g><g><polygon class="cls-2" points="604 28.9 604.1 27.9 623.6 27.9 624.3 23.1 604.9 23.1 606.8 12.1 602.3 12.1 599.3 28.9 604 28.9"/><polygon class="cls-2" points="603.6 30.7 598.9 30.7 596.3 47 622.1 47 623 42.3 601.5 42.3 603.6 30.7"/></g><g><path class="cls-2" d="M641.8,24.9c.9,.7,2.6,1.7,5.2,3,.6,.4,1.1,.6,1.5,.9h8.4c-.4-.4-.7-.9-1.1-1.3-.9-.9-3-2.2-5.8-3.7-3.9-2.1-6.3-3.5-7.3-4.5-.9-.9-1.5-2.2-1.5-3.9,0-1.3,.4-2.6,1.1-3.5h-4.9c-.4,1.1-.6,2.4-.6,3.9,0,1.9,.4,3.5,1.1,5,1.1,1.7,2.5,3,3.9,4.1Z"/><path class="cls-2" d="M658.3,30.7h-6.5c.7,.6,1.3,.9,1.7,1.5,.9,1.1,1.3,2.2,1.3,3.7,0,2.1-.7,3.7-2.2,5.2-1.5,1.3-3.5,2.1-6.2,2.1-1.9,0-3.5-.4-4.9-1.1-1.3-.7-2.2-1.7-2.8-2.6-.7-1.5-1.1-3.2-1.1-5v-1.3l-4.5,.6c0,4.9,1.1,8.4,3.4,10.8,2.2,2.4,5.4,3.4,9.7,3.4,3.9,0,7.1-1.1,9.5-3.5,2.4-2.2,3.7-5.2,3.7-8.8,0-1.7-.4-3.2-.9-4.5q-.2-.3-.2-.5Z"/></g></g><rect class="cls-3" x="691" width="196.48" height="51.37" rx="7.51" ry="7.51"/><g class="cls-5"><path class="cls-1" d="M730.8,19.07c.6,.4,1.3,1.1,2.1,2V10.67h3.3v28.2h-3.2v-2.9c-.8,1.3-1.7,2.2-2.8,2.7-1.1,.6-2.3,.8-3.8,.8-2.3,0-4.2-1-5.9-2.9s-2.5-4.5-2.5-7.7c0-3,.8-5.6,2.3-7.8,1.5-2.2,3.7-3.3,6.5-3.3,1.6,.3,2.9,.6,4,1.3Zm-7.7,15.3c.9,1.5,2.4,2.2,4.5,2.2,1.6,0,2.9-.7,3.9-2.1s1.5-3.3,1.5-5.9-.5-4.5-1.6-5.8c-1.1-1.2-2.4-1.9-3.9-1.9-1.7,0-3.1,.7-4.2,2-1.1,1.3-1.6,3.3-1.6,5.9,0,2.3,.4,4.2,1.4,5.6Z"/><path class="cls-1" d="M750.6,10.77h3.5v3.9h-3.5v-3.9Zm0,7.7h3.5v20.4h-3.5V18.47Z"/><path class="cls-1" d="M768.8,18.37h3.3v3.5c.3-.7,.9-1.5,2-2.5,1-1,2.3-1.5,3.6-1.5h.3c.2,0,.4,0,.8,.1v3.6c-.2,0-.4-.1-.6-.1h-.6c-1.7,0-3.1,.6-4,1.7s-1.4,2.4-1.4,3.9v11.8h-3.4V18.37h0Z"/><path class="cls-1" d="M803.7,18.97c1.4,.7,2.4,1.6,3.1,2.7,.7,1,1.1,2.2,1.4,3.6,.2,.9,.3,2.5,.3,4.5h-14.9c.1,2.1,.6,3.8,1.5,5,.9,1.3,2.3,1.9,4.2,1.9,1.8,0,3.2-.6,4.3-1.8,.6-.7,1-1.5,1.3-2.4h3.4c-.1,.8-.4,1.6-.9,2.5s-1.1,1.7-1.7,2.3c-1,1-2.3,1.7-3.9,2.1-.8,.2-1.8,.3-2.8,.3-2.5,0-4.7-.9-6.4-2.8s-2.6-4.5-2.6-7.8,.9-6,2.7-8c1.8-2.1,4.1-3.1,7-3.1,1.2,0,2.6,.3,4,1Zm1.2,8.1c-.1-1.5-.5-2.7-1-3.6-.9-1.7-2.5-2.5-4.7-2.5-1.6,0-2.9,.6-3.9,1.7-1.1,1.1-1.6,2.6-1.7,4.4h11.3Z"/><path class="cls-1" d="M835.7,19.47c1.4,1.1,2.3,3.1,2.6,5.8h-3.3c-.2-1.3-.7-2.3-1.4-3.1-.7-.8-1.9-1.3-3.5-1.3-2.2,0-3.8,1.1-4.7,3.2-.6,1.4-.9,3.1-.9,5.1,0,2.1,.4,3.8,1.3,5.2,.9,1.4,2.2,2.1,4.1,2.1,1.4,0,2.6-.4,3.4-1.3,.8-.9,1.4-2.1,1.7-3.6h3.3c-.4,2.7-1.3,4.7-2.9,6s-3.5,1.9-5.9,1.9c-2.7,0-4.8-1-6.4-2.9s-2.4-4.4-2.4-7.3c0-3.6,.9-6.4,2.6-8.4,1.7-2,4-3,6.7-3,2.4,0,4.3,.5,5.7,1.6Z"/><path class="cls-1" d="M851.8,12.67h3.5v5.7h3.3v2.8h-3.3v13.4c0,.7,.2,1.2,.7,1.4,.3,.1,.7,.2,1.3,.2h.5c.2,0,.4,0,.7-.1v2.7c-.4,.1-.8,.2-1.2,.2-.4,.1-.9,.1-1.4,.1-1.6,0-2.7-.4-3.3-1.2s-.9-1.9-.9-3.2v-13.6h-2.7v-2.7h2.8v-5.7Z"/></g></svg>