<svg id="Layer_1" data-name="Layer 1" xmlns="http://www.w3.org/2000/svg" viewBox="0 0 40 40"><defs><style>.cls-1{fill:#5cba47;}.cls-2{fill:#dcdcdc;}.cls-3,.cls-6,.cls-7,.cls-8{fill:none;}.cls-3{stroke:#ccc;}.cls-3,.cls-6{stroke-miterlimit:10;}.cls-3,.cls-8{stroke-width:0.51px;}.cls-4{isolation:isolate;}.cls-5{fill:#333;}.cls-6{stroke:#5cba47;stroke-width:2.04px;}.cls-7,.cls-8{stroke:#468e35;stroke-linejoin:bevel;}.cls-7{stroke-width:1.02px;}</style></defs><title>Artboard 4</title><g id="Group_1" data-name="Group 1"><path id="Path_899" data-name="Path 899" class="cls-1" d="M21.83,2,15.8.5c1,.93,1.62,3.48.81,4.79Z"/><path id="Path_900" data-name="Path 900" class="cls-2" d="M17.79,8.78a63.94,63.94,0,0,1,3.3,11.57c0,1.37-2.05,1.37-2.43.37A61.54,61.54,0,0,1,17.79,8.78Z"/><line id="Line_294" data-name="Line 294" class="cls-3" x1="20.03" y1="20.54" x2="33.21" y2="26.26"/><g id="_1hr" data-name=" 1hr" class="cls-4"><g class="cls-4"><path class="cls-5" d="M16.25,23.86H14.73v-5.4L13,20.13l-.89-1,2.33-2h1.85Z"/><path class="cls-5" d="M19.88,20h0c.25-.71.59-.92,1.45-.92,1.08,0,1.59.48,1.59,1.48v3.31H21.59V21a1.1,1.1,0,0,0-.09-.6c-.11-.18-.29-.26-.64-.26-.71,0-1,.28-1,1v2.7H18.53V17.1h1.35Z"/><path class="cls-5" d="M25.34,19.13l-.07.72h0a1.2,1.2,0,0,1,1.25-.78,1,1,0,0,1,1.15.75,4.23,4.23,0,0,1,.08,1.27H26.52v-.19c0-.62-.1-.78-.5-.78a.62.62,0,0,0-.63.41,1.48,1.48,0,0,0-.06.59v2.76H24V19.13Z"/></g></g><path id="Path_901" data-name="Path 901" class="cls-6" d="M22.7,2.68a18,18,0,1,1-5.41,0"/><line id="Line_295" data-name="Line 295" class="cls-7" x1="20.09" y1="6.47" x2="20.09" y2="10.71"/><line id="Line_296" data-name="Line 296" class="cls-7" x1="20.09" y1="30.5" x2="20.09" y2="34.73"/><line id="Line_297" data-name="Line 297" class="cls-7" x1="34.15" y1="20.6" x2="29.98" y2="20.6"/><line id="Line_298" data-name="Line 298" class="cls-7" x1="10.14" y1="20.6" x2="5.98" y2="20.6"/><line id="Line_299" data-name="Line 299" class="cls-8" x1="27.12" y1="8.4" x2="26.06" y2="10.21"/><line id="Line_300" data-name="Line 300" class="cls-8" x1="14.06" y1="30.99" x2="13" y2="32.8"/><line id="Line_301" data-name="Line 301" class="cls-8" x1="32.28" y1="27.63" x2="30.48" y2="26.64"/><line id="Line_302" data-name="Line 302" class="cls-8" x1="9.65" y1="14.63" x2="7.84" y2="13.57"/><line id="Line_303" data-name="Line 303" class="cls-8" x1="32.28" y1="13.57" x2="30.48" y2="14.56"/><line id="Line_304" data-name="Line 304" class="cls-8" x1="9.65" y1="26.64" x2="7.84" y2="27.63"/><line id="Line_305" data-name="Line 305" class="cls-8" x1="27.12" y1="32.8" x2="26.06" y2="30.99"/><line id="Line_306" data-name="Line 306" class="cls-8" x1="14.06" y1="10.21" x2="13" y2="8.4"/></g></svg>