<svg xmlns="http://www.w3.org/2000/svg" version="1.1" x="0" y="0" viewBox="104 632 25 25" xml:space="preserve">
    <style type="text/css">
        .st0{fill:#FFFFFF;}
    </style>
    <path class="st0" d="M128.8 652.1C128.8 652.1 128.8 652.1 128.8 652.1l-7.6-7.6 7.6-7.6c0 0 0 0 0 0 0.1-0.1 0.1-0.2 0.2-0.3 0.1-0.3 0-0.6-0.2-0.8l-3.6-3.6c-0.2-0.2-0.5-0.3-0.8-0.2 -0.1 0-0.2 0.1-0.3 0.2 0 0 0 0 0 0l-7.6 7.6 -7.6-7.6c0 0 0 0 0 0 -0.1-0.1-0.2-0.1-0.3-0.2 -0.3-0.1-0.6 0-0.8 0.2l-3.6 3.6c-0.2 0.2-0.3 0.5-0.2 0.8 0 0.1 0.1 0.2 0.2 0.3 0 0 0 0 0 0l7.6 7.6 -7.6 7.6c0 0 0 0 0 0 -0.1 0.1-0.1 0.2-0.2 0.3 -0.1 0.3 0 0.6 0.2 0.8l3.6 3.6c0.2 0.2 0.5 0.3 0.8 0.2 0.1 0 0.2-0.1 0.3-0.2 0 0 0 0 0 0l7.6-7.6 7.6 7.6c0 0 0 0 0 0 0.1 0.1 0.2 0.1 0.3 0.2 0.3 0.1 0.6 0 0.8-0.2l3.6-3.6c0.2-0.2 0.3-0.5 0.2-0.8C128.9 652.3 128.9 652.2 128.8 652.1L128.8 652.1z"/>
</svg>
