<svg xmlns="http://www.w3.org/2000/svg" viewBox="0 0 38.43 19.37"><defs><style>.cls-1{fill:#006;}</style></defs><title>Deliver</title><g id="Layer_2" data-name="Layer 2"><g id="Layer_1-2" data-name="Layer 1"><path id="Path_960" data-name="Path 960" class="cls-1" d="M11.9,14.65A4.21,4.21,0,0,0,10.6,17l-3,0h0a.5.5,0,0,1-.49-.59l.19-1.16A.71.71,0,0,1,8,14.69h4Z"/><path id="Path_961" data-name="Path 961" class="cls-1" d="M37.3,14.65l1.12-6.3V8.08L36.69,2.66a.47.47,0,0,0-.45-.32H30.69a.78.78,0,0,0-.69.57L28,14.63H17.17A2.86,2.86,0,0,1,17.62,17l11.06,0A4.37,4.37,0,0,1,30,14.63a4.08,4.08,0,0,1,2.82-1.17h.08a2.9,2.9,0,0,1,2.32,1.16,3,3,0,0,1,.57,1.76,3,3,0,0,1-.07.63l1.16,0a.78.78,0,0,0,.74-.56l.2-1.17a.47.47,0,0,0,0-.13.48.48,0,0,0-.48-.48h0ZM30.22,8.19,31,3.55h4.68l1.5,4.67h-7Z"/><path id="Path_962" data-name="Path 962" d="M14.53,14.65A2.92,2.92,0,0,0,11.79,17a2,2,0,0,0,0,.44,1.94,1.94,0,0,0,1.94,1.94h0A2.91,2.91,0,0,0,16.46,17a2,2,0,0,0,.05-.46,1.92,1.92,0,0,0-1.92-1.92h-.06ZM15.27,17a1.44,1.44,0,0,1-1.39,1.17h0A1,1,0,0,1,12.92,17a1.44,1.44,0,0,1,1.39-1.15h0A1,1,0,0,1,15.27,17Z"/><path id="Path_963" data-name="Path 963" d="M32.62,14.65A2.92,2.92,0,0,0,29.89,17a2,2,0,0,0,0,.44,1.94,1.94,0,0,0,1.94,1.94h0A2.92,2.92,0,0,0,34.54,17a2,2,0,0,0,0-.44,1.94,1.94,0,0,0-1.94-1.94h0ZM33.36,17A1.44,1.44,0,0,1,32,18.13h0a1,1,0,0,1-1-1A1,1,0,0,1,31,17a1.44,1.44,0,0,1,1.39-1.15h0A1,1,0,0,1,33.36,17Z"/><path id="Path_964" data-name="Path 964" class="cls-1" d="M29.34,0l-2.4,13.45H7.52l.25-1.15H4.7a.58.58,0,0,1,0-1.15h8.78a.58.58,0,0,0,0-1.15H8.24l.32-1.74H2.93a.58.58,0,0,1,0-1.15h13a.58.58,0,1,0,0-1.16h-7L9.25,4.2H.58A.58.58,0,1,1,.58,3H13.45a.58.58,0,0,0,0-1.15H9.63L9.94.15H29.36V0Z"/></g></g></svg>