<svg id="Layer_1" data-name="Layer 1" xmlns="http://www.w3.org/2000/svg" viewBox="0 0 80 80"><defs><style>.cls-1{fill:#5cba47;}</style></defs><title>icon-delivery-alert-collection</title><g id="Group_1" data-name="Group 1"><path d="M67.47,66.87a1,1,0,0,0-.13-1.05L51.12,40.91s-1.82-2.67-2.22-2.67h0c-.38,0-.94,3.32-.94,3.32L43.44,72.22a1,1,0,0,0,.41,1,1,1,0,0,0,.62.21,1.07,1.07,0,0,0,.43-.09l7.5-3.41,2.49,9.32a1.05,1.05,0,0,0,.49.64,1.07,1.07,0,0,0,.52.14.84.84,0,0,0,.27,0l4-1.08a1,1,0,0,0,.72-1.27l-2.49-9.33,8.2-.79A1.05,1.05,0,0,0,67.47,66.87Z"/><path class="cls-1" d="M44.13,40.69v-.08s.16-.93.37-1.85a15.45,15.45,0,0,1,.41-1.51,5.08,5.08,0,0,1,.42-1,4,4,0,0,1,3-2.14,3.43,3.43,0,0,1,.56,0c2.16,0,3.42,1.65,4.33,2.86.56.73,1,1.45,1.07,1.48l0,0,0,0L61.7,49.81,59.28,20a4.57,4.57,0,0,0-4.49-4.2H49V11.16A11.39,11.39,0,0,0,37.68,0,11.16,11.16,0,0,0,26.52,11.16V15.8h-5.8A4.56,4.56,0,0,0,16.23,20L12.46,64.65a4.64,4.64,0,0,0,4.35,4.92H39.88Zm3-21.7a2.86,2.86,0,0,1,2.76,2.76,2.66,2.66,0,0,1-2.58,2.75H47.1a2.76,2.76,0,0,1,0-5.51Zm-17-7.83a7.69,7.69,0,0,1,15.37,0V15.8H30.14ZM28.61,24.5a2,2,0,0,1-.35,0,2.76,2.76,0,1,1,0-5.51A2.85,2.85,0,0,1,31,21.75,2.58,2.58,0,0,1,28.61,24.5Z"/></g></svg>