<svg id="tlc-logo" xmlns="http://www.w3.org/2000/svg" viewBox="0 0 83 48">
  <defs>
    <style>
      .logo-drop-shadow {
        opacity: 0.5;
        isolation: isolate;
        filter: url(#blur);
      }
      .logo-diamond {
        fill: #ffff00;
      }
      .logo-text {
        fill: #cc3333;
      }
    </style>
    <filter id="blur">
      <feGaussianBlur stdDeviation="2"/>
    </filter>
  </defs>
  <path class="logo-drop-shadow" d="M4,24.1L41.4,4L79,24.1L41.6,44L4,24.1z"/>
  <path class="logo-diamond" d="M41.4,4L79,24.1L41.6,44L4,24.1L41.4,4z"/>
  <path class="logo-text" d="M41.6,17H29.2l-2.6,2.8H39 M46.6,17h-3.8l-2.6,2.8h3.8 M34.2,20.5h-3.9l-5.6,6.1h3.8 M43.5,20.5h-3.9L34,26.5h3.8 M27.8,27.2h-3.9L21.5,30h3.9 M42.8,27.2h-9.5L30.8,30h9.6 M49.7,19.8c3-2.1,7.4-3.3,10.5-2.5c1.2,0.3,1.5,1.4,1.1,2.5H49.7zM54.3,27.2c-2.9,2.2-6.6,3.1-10.1,2.5c-1.2-0.3-1.5-1.4-1.2-2.5C43,27.2,54.3,27.2,54.3,27.2z M48.8,20.4h4.3c-2.6,1.6-5.7,4.7-5.8,6.1h-4C44.8,24.2,46.6,22.2,48.8,20.4L48.8,20.4z M56.6,20.4H61c0,0.2-0.1,0.3-0.2,0.4l-4.6,0.8C56.5,21.3,56.6,20.9,56.6,20.4L56.6,20.4z M53.8,24.4l2.7,1.3c-0.3,0.4-0.9,0.7-1.1,1h-4.5C51.9,26,53.2,24.9,53.8,24.4L53.8,24.4z"/>
</svg>
