<svg xmlns="http://www.w3.org/2000/svg" viewBox="0 0 145.73 25.12"><defs><style>.a{fill:#fff;}.b{fill:#00b67a;}.c{fill:#005128;}</style></defs><title>trustpilot-logo</title><path class="a" d="M21.11,9.7h8.1v1.51H26V19.7H24.27V11.21H21.1V9.7Zm7.75,2.76h1.5v1.4h0a1.68,1.68,0,0,1,.28-.57,2.36,2.36,0,0,1,.49-.51,2.52,2.52,0,0,1,.63-.38,2,2,0,0,1,.71-.14l.39,0,.22,0v1.54l-.34-.05-.35,0a1.8,1.8,0,0,0-.76.17,1.58,1.58,0,0,0-.62.47,2.38,2.38,0,0,0-.43.77,3.5,3.5,0,0,0-.15,1.07v3.44h-1.6V12.46ZM40.43,19.7H38.87v-1h0a2.19,2.19,0,0,1-.88.88,2.34,2.34,0,0,1-1.18.33,2.63,2.63,0,0,1-2.07-.71,3.13,3.13,0,0,1-.63-2.14V12.46h1.59V16.9A2,2,0,0,0,36,18.25a1.32,1.32,0,0,0,1,.39,2,2,0,0,0,.84-.15,1.36,1.36,0,0,0,.54-.42,1.58,1.58,0,0,0,.31-.62,3.21,3.21,0,0,0,.09-.78v-4.2h1.59Zm2.72-2.32a1.23,1.23,0,0,0,.53,1,2.18,2.18,0,0,0,1.11.28l.51,0a1.8,1.8,0,0,0,.53-.14,1,1,0,0,0,.42-.29.66.66,0,0,0,.15-.49.71.71,0,0,0-.23-.5,1.53,1.53,0,0,0-.53-.32,4.52,4.52,0,0,0-.75-.2L44,16.48a8.42,8.42,0,0,1-.86-.24,2.73,2.73,0,0,1-.74-.38,1.68,1.68,0,0,1-.52-.6,2,2,0,0,1-.2-.92,1.66,1.66,0,0,1,.29-1,2.14,2.14,0,0,1,.73-.64,3.09,3.09,0,0,1,1-.35,6.39,6.39,0,0,1,1-.1,4.68,4.68,0,0,1,1.07.12,3,3,0,0,1,.93.39,2.3,2.3,0,0,1,1,1.72H46.1a1,1,0,0,0-.52-.77,2.21,2.21,0,0,0-.95-.19,3,3,0,0,0-.4,0,3.54,3.54,0,0,0-.44.11,1,1,0,0,0-.34.23.52.52,0,0,0-.14.38.63.63,0,0,0,.2.48,1.67,1.67,0,0,0,.53.3,5.7,5.7,0,0,0,.75.21l.87.18a8.24,8.24,0,0,1,.85.24,2.65,2.65,0,0,1,.75.38,1.91,1.91,0,0,1,.53.6,1.87,1.87,0,0,1,.2.9,2,2,0,0,1-.29,1.09,2.34,2.34,0,0,1-.77.73,3.83,3.83,0,0,1-1,.41,5.52,5.52,0,0,1-1.14.12,5.14,5.14,0,0,1-1.27-.15,3.24,3.24,0,0,1-1-.47,2.4,2.4,0,0,1-.67-.78,2.72,2.72,0,0,1-.26-1.12h1.61Zm5.27-4.92h1.2V10.29h1.6v2.17h1.44v1.19H51.22v3.87c0,.17,0,.31,0,.44a.76.76,0,0,0,.1.31.48.48,0,0,0,.23.19,1.23,1.23,0,0,0,.43.06h.33l.34-.05V19.7l-.51.06a4.41,4.41,0,0,1-.52,0,3.81,3.81,0,0,1-1-.12,1.27,1.27,0,0,1-.6-.36,1.19,1.19,0,0,1-.3-.58,4.53,4.53,0,0,1-.09-.79V13.67H48.43V12.46Zm5.37,0H55.3v1h0a1.91,1.91,0,0,1,.94-.9,3,3,0,0,1,1.3-.28,3.31,3.31,0,0,1,1.49.31,2.86,2.86,0,0,1,1.06.82,3.58,3.58,0,0,1,.63,1.23,5.23,5.23,0,0,1,.21,1.5,5.51,5.51,0,0,1-.19,1.41,3.86,3.86,0,0,1-.57,1.21,2.85,2.85,0,0,1-1,.84,2.88,2.88,0,0,1-1.39.32,4.23,4.23,0,0,1-.7-.06,3.73,3.73,0,0,1-.67-.21,2.39,2.39,0,0,1-.59-.36,2.47,2.47,0,0,1-.46-.51h0v3.62H53.79Zm5.57,3.63a3.75,3.75,0,0,0-.12-.95,2.82,2.82,0,0,0-.38-.82,2.17,2.17,0,0,0-.63-.58,1.81,1.81,0,0,0-.87-.21,1.77,1.77,0,0,0-1.52.69,3.12,3.12,0,0,0-.51,1.87,3.62,3.62,0,0,0,.14,1,2.36,2.36,0,0,0,.4.81,2,2,0,0,0,.64.53,1.79,1.79,0,0,0,.86.2,1.77,1.77,0,0,0,.92-.23,2,2,0,0,0,.62-.58,2.46,2.46,0,0,0,.35-.81,4.08,4.08,0,0,0,.1-.93ZM62.18,9.7h1.59v1.51H62.18Zm0,2.76h1.59V19.7H62.18V12.46Zm3-2.76h1.6v10H65.2V9.7Zm6.49,10.2a4,4,0,0,1-1.55-.29A3.47,3.47,0,0,1,69,18.82a3.4,3.4,0,0,1-.71-1.21,4.81,4.81,0,0,1,0-3.06A3.4,3.4,0,0,1,69,13.34a3.24,3.24,0,0,1,1.15-.79,4.26,4.26,0,0,1,3.09,0,3.47,3.47,0,0,1,1.15.79,3.57,3.57,0,0,1,.72,1.21,5,5,0,0,1,0,3.06,3.57,3.57,0,0,1-.72,1.21,3.24,3.24,0,0,1-1.15.79,4,4,0,0,1-1.54.29Zm0-1.26a1.82,1.82,0,0,0,.92-.23,2,2,0,0,0,.64-.59,2.74,2.74,0,0,0,.38-.81,4.25,4.25,0,0,0,.12-.94,4.15,4.15,0,0,0-.12-.92,2.47,2.47,0,0,0-.38-.82,2,2,0,0,0-.64-.58,2.05,2.05,0,0,0-1.85,0,2.1,2.1,0,0,0-.64.58,2.45,2.45,0,0,0-.37.82,3.63,3.63,0,0,0-.12.92,3.73,3.73,0,0,0,.12.94,2.3,2.3,0,0,0,.37.81,2,2,0,0,0,.64.59,1.74,1.74,0,0,0,.93.23Zm4.12-6.18H77V10.29h1.6v2.17h1.44v1.19H78.61v3.87c0,.17,0,.31,0,.44a.94.94,0,0,0,.1.31.48.48,0,0,0,.23.19,1.23,1.23,0,0,0,.43.06h.33l.34-.05V19.7l-.51.06a4.41,4.41,0,0,1-.52,0,3.81,3.81,0,0,1-1-.12,1.27,1.27,0,0,1-.6-.36,1.19,1.19,0,0,1-.3-.58,4.53,4.53,0,0,1-.09-.79V13.67H75.82V12.46Z"/><path class="b" d="M19.25,9.7H11.94l-2.26-7-2.27,7H.1L6,14,3.76,21l5.92-4.3L15.59,21,13.33,14Z"/><path class="c" d="M13.84,15.57,13.33,14,9.68,16.65Z"/><path class="b" d="M87.23,9.32H98V20.08H87.23Z"/><path class="a" d="M92.62,16.6l1.64-.43.68,2.12Zm3.77-2.74H93.5l-.89-2.75-.89,2.75h-2.9l2.34,1.7-.89,2.74,2.34-1.69,1.44-1Z"/><path class="b" d="M99.15,9.32h10.76V20.08H99.15Z"/><path class="a" d="M104.52,16.6l1.65-.43.69,2.12Zm3.78-2.74h-2.89l-.89-2.75-.89,2.75h-2.89l2.34,1.7-.9,2.74,2.34-1.7L106,15.55Z"/><path class="b" d="M111.05,9.32h10.76V20.08H111.05Z"/><path class="a" d="M116.44,16.6l1.65-.43.68,2.12Zm3.77-2.74h-2.89l-.9-2.75-.89,2.75h-2.89l2.34,1.7-.89,2.74,2.33-1.69,1.45-1,2.34-1.7Z"/><path class="b" d="M123,9.32h10.77V20.08H123Z"/><path class="a" d="M128.34,16.6l1.65-.43.69,2.12-2.34-1.69Zm3.78-2.74h-2.89l-.89-2.75-.89,2.75h-2.89l2.33,1.7L126,18.3l2.34-1.69,1.44-1Z"/><path class="b" d="M134.86,9.32h10.77V20.08H134.86Z"/><path class="a" d="M140.25,16.6l1.65-.43.69,2.12-2.34-1.69ZM144,13.86h-2.89l-.89-2.75-.89,2.75h-2.89l2.33,1.7-.89,2.74,2.34-1.69,1.45-1Z"/></svg>